<svg xmlns="http://www.w3.org/2000/svg" version="1.1" xmlns:xlink="http://www.w3.org/1999/xlink" width="200" height="200"><svg xmlns="http://www.w3.org/2000/svg" version="1.1" xmlns:xlink="http://www.w3.org/1999/xlink" viewBox="0 0 200 200"><rect width="200" height="200" fill="url('#gradient')"></rect><defs><linearGradient id="SvgjsLinearGradient1001" gradientTransform="rotate(45 0.5 0.5)"><stop offset="0%" stop-color="#472027"></stop><stop offset="100%" stop-color="#192025"></stop></linearGradient></defs><g><g fill="#f3bd7d" transform="matrix(3.9290167865707435,0,0,3.9290167865707435,25.60840639387675,127.93468474358392)" stroke="#c06a3e" stroke-width="0.2"><path d="M11.65-12.46L4.92-2.64L11.72-2.64L11.72 0L0.64 0L0.64-1.81L7.42-11.57L0.61-11.57L0.61-14.22L11.65-14.22L11.65-12.46ZM21.13 0L18.11-5.29L16.70-3.75L16.70 0L13.27 0L13.27-14.22L16.70-14.22L16.70-7.95L17.89-9.76L20.96-14.22L25.20-14.22L20.39-7.93L25.20 0L21.13 0ZM31.68-4.82L29.49-4.82L29.49 0L26.06 0L26.06-14.22L31.74-14.22Q33.37-14.22 34.62-13.62Q35.88-13.02 36.57-11.91Q37.26-10.80 37.26-9.39L37.26-9.39Q37.26-7.31 35.77-6.07Q34.28-4.82 31.68-4.82L31.68-4.82ZM29.49-11.57L29.49-7.47L31.74-7.47Q32.73-7.47 33.26-7.97Q33.78-8.47 33.78-9.38L33.78-9.38Q33.78-10.37 33.24-10.97Q32.71-11.56 31.78-11.57L31.78-11.57L29.49-11.57Z"></path></g></g></svg><style>@media (prefers-color-scheme: light) { :root { filter: none; } }
@media (prefers-color-scheme: dark) { :root { filter: none; } }
</style></svg>